<?xml version="1.0" encoding="UTF-8" standalone="no"?>
<!-- Created with Inkscape (http://www.inkscape.org/) -->

<svg
   xmlns:dc="http://purl.org/dc/elements/1.1/"
   xmlns:cc="http://creativecommons.org/ns#"
   xmlns:rdf="http://www.w3.org/1999/02/22-rdf-syntax-ns#"
   xmlns:svg="http://www.w3.org/2000/svg"
   xmlns="http://www.w3.org/2000/svg"
   xmlns:sodipodi="http://sodipodi.sourceforge.net/DTD/sodipodi-0.dtd"
   xmlns:inkscape="http://www.inkscape.org/namespaces/inkscape"
   width="11.84375"
   height="16.1875"
   id="svg2983"
   version="1.1"
   inkscape:version="0.48.4 r9939"
   sodipodi:docname="40.svg">
  <defs
     id="defs2985" />
  <sodipodi:namedview
     id="base"
     pagecolor="#ffffff"
     bordercolor="#666666"
     borderopacity="1.0"
     inkscape:pageopacity="0.0"
     inkscape:pageshadow="2"
     inkscape:zoom="22.627417"
     inkscape:cx="-2.267457"
     inkscape:cy="5.4659237"
     inkscape:document-units="px"
     inkscape:current-layer="layer1"
     showgrid="false"
     inkscape:window-width="1920"
     inkscape:window-height="1025"
     inkscape:window-x="0"
     inkscape:window-y="30"
     inkscape:window-maximized="1"
     fit-margin-top="0"
     fit-margin-left="0"
     fit-margin-right="0"
     fit-margin-bottom="0" />
  <metadata
     id="metadata2988">
    <rdf:RDF>
      <cc:Work
         rdf:about="">
        <dc:format>image/svg+xml</dc:format>
        <dc:type
           rdf:resource="http://purl.org/dc/dcmitype/StillImage" />
        <dc:title></dc:title>
      </cc:Work>
    </rdf:RDF>
  </metadata>
  <g
     inkscape:label="Layer 1"
     inkscape:groupmode="layer"
     id="layer1"
     transform="translate(-1619.9063,-672.15625)">
    <path
       style="fill:#ffffff;fill-opacity:1;stroke:#000000;stroke-width:0.2;stroke-miterlimit:4;stroke-dasharray:none"
       d="m 1620.8848,672.25342 c -0.497,0 -0.8848,0.42464 -0.8848,0.96875 l 0,14.0625 c 0,0.54411 0.3878,0.96875 0.8848,0.96875 l 3.1111,0 c 0.1484,-0.31386 0.4614,-0.53125 0.7992,-0.53125 0.3377,0 0.6306,0.21739 0.7706,0.53125 l 4.2528,0 0,-16 -4.1957,0 c -0.098,0.40727 -0.4278,0.71875 -0.8277,0.71875 -0.4,0 -0.7519,-0.31148 -0.8563,-0.71875 l -3.054,0 z m 9.3618,0 0,10.84375 1.3985,0 0,-9.875 c 0,-0.54411 -0.3878,-0.96875 -0.8848,-0.96875 l -0.5137,0 z m 0,11.71875 0,4.28125 0.5137,0 c 0.497,0 0.8848,-0.42464 0.8848,-0.96875 l 0,-3.3125 -1.3985,0 z"
       id="rect3795"
       inkscape:connector-curvature="0" />
    <rect
       y="685.31348"
       x="1621.2076"
       height="1.9739803"
       width="7.4350929"
       id="rect3835"
       style="fill:#0098bf;fill-opacity:1;stroke:none" />
    <rect
       style="fill:#0098bf;fill-opacity:1;stroke:none"
       id="rect3859"
       width="7.4350929"
       height="1.9739803"
       x="1621.2076"
       y="682.54028" />
  </g>
</svg>
