<?xml version="1.0" encoding="UTF-8" standalone="no"?>
<!-- Created with Inkscape (http://www.inkscape.org/) -->

<svg
   xmlns:dc="http://purl.org/dc/elements/1.1/"
   xmlns:cc="http://creativecommons.org/ns#"
   xmlns:rdf="http://www.w3.org/1999/02/22-rdf-syntax-ns#"
   xmlns:svg="http://www.w3.org/2000/svg"
   xmlns="http://www.w3.org/2000/svg"
   xmlns:sodipodi="http://sodipodi.sourceforge.net/DTD/sodipodi-0.dtd"
   xmlns:inkscape="http://www.inkscape.org/namespaces/inkscape"
   width="16.495541"
   height="16.495541"
   id="svg2"
   version="1.1"
   inkscape:version="0.48.4 r9939"
   sodipodi:docname="loading.svg">
  <defs
     id="defs4" />
  <sodipodi:namedview
     id="base"
     pagecolor="#ffffff"
     bordercolor="#666666"
     borderopacity="1.0"
     inkscape:pageopacity="0.0"
     inkscape:pageshadow="2"
     inkscape:zoom="11.2"
     inkscape:cx="55.479371"
     inkscape:cy="23.010203"
     inkscape:document-units="px"
     inkscape:current-layer="layer1"
     showgrid="false"
     fit-margin-top="0"
     fit-margin-left="0"
     fit-margin-right="0"
     fit-margin-bottom="0"
     inkscape:window-width="1920"
     inkscape:window-height="1025"
     inkscape:window-x="0"
     inkscape:window-y="30"
     inkscape:window-maximized="1" />
  <metadata
     id="metadata7">
    <rdf:RDF>
      <cc:Work
         rdf:about="">
        <dc:format>image/svg+xml</dc:format>
        <dc:type
           rdf:resource="http://purl.org/dc/dcmitype/StillImage" />
        <dc:title />
      </cc:Work>
    </rdf:RDF>
  </metadata>
  <g
     inkscape:label="Layer 1"
     inkscape:groupmode="layer"
     id="layer1"
     transform="translate(479.77232,-781.25015)">
    <path
       style="fill:#1a1a1a;fill-opacity:1;stroke:none"
       d="m -471.51092,781.25015 c -4.5605,0 -8.2614,3.67364 -8.2614,8.23413 0,4.5605 3.7009,8.26141 8.2614,8.26141 4.56049,0 8.23414,-3.70091 8.23414,-8.26141 0,-4.56049 -3.67365,-8.23413 -8.23414,-8.23413 z m 0.0545,1.30873 c 3.8291,0 6.95267,3.09632 6.95267,6.9254 0,3.8291 -3.12357,6.95267 -6.95267,6.95267 -3.82909,0 -6.9254,-3.12357 -6.9254,-6.95267 0,-3.82908 3.09631,-6.9254 6.9254,-6.9254 z"
       id="path3000"
       inkscape:connector-curvature="0" />
    <path
       style="fill:#ffffff;fill-opacity:1;stroke:none"
       d="m -471.52475,781.7038 c -4.30326,0 -7.7899,3.48663 -7.7899,7.7899 0,4.30326 3.48664,7.7942 7.7899,7.7942 4.30327,0 7.7942,-3.49094 7.7942,-7.7942 0,-4.30327 -3.49093,-7.7899 -7.7942,-7.7899 z m 0,1.42808 c 3.29872,0 6.3188,3.16204 6.3188,6.46075 0,3.29872 -3.06741,6.36612 -6.36611,6.36612 -3.29871,0 -6.41344,-3.26527 -6.41344,-6.56398 0,-3.29872 3.16203,-6.26289 6.46075,-6.26289 z m -0.12044,1.32484 c -0.32471,-2.4e-4 -0.58474,0.26029 -0.58499,0.585 l -0.004,4.92514 c -2.4e-4,0.27183 0.18431,0.49642 0.43445,0.56348 l 3.22607,1.71198 c 0.22205,0.11783 0.49306,0.0329 0.61079,-0.18927 l 0.15056,-0.28389 c 0.11774,-0.22212 0.0371,-0.49727 -0.18496,-0.61511 l -3.00671,-1.59153 0.004,-4.5208 c 2.3e-4,-0.32471 -0.26028,-0.58474 -0.585,-0.585 l -0.0603,0 z"
       id="path2987"
       inkscape:connector-curvature="0" />
  </g>
</svg>
